<svg viewBox="0 0 200 200" xmlns="http://www.w3.org/2000/svg" role="img" aria-hidden="true">
  <rect width="200" height="200" rx="16" fill="#fdf8ee"/>
  <g>
    <path d="M 20.0,-10.0 C 20.0,17.5 44.0,17.5 44.0,45.0 C 44.0,72.5 -4.0,72.5 -4.0,100.0 C -4.0,127.5 44.0,127.5 44.0,155.0 C 44.0,182.5 -4.0,182.5 -4.0,210.0 C -4.0,237.5 44.0,237.5 44.0,265.0" fill="none" stroke="#1f2937" stroke-width="9" stroke-linecap="round"/>
    <path d="M 60.0,-10.0 C 60.0,17.5 84.0,17.5 84.0,45.0 C 84.0,72.5 36.0,72.5 36.0,100.0 C 36.0,127.5 84.0,127.5 84.0,155.0 C 84.0,182.5 36.0,182.5 36.0,210.0 C 36.0,237.5 84.0,237.5 84.0,265.0" fill="none" stroke="#1f2937" stroke-width="9" stroke-linecap="round"/>
    <path d="M 100.0,-10.0 C 100.0,17.5 124.0,17.5 124.0,45.0 C 124.0,72.5 76.0,72.5 76.0,100.0 C 76.0,127.5 124.0,127.5 124.0,155.0 C 124.0,182.5 76.0,182.5 76.0,210.0 C 76.0,237.5 124.0,237.5 124.0,265.0" fill="none" stroke="#1f2937" stroke-width="9" stroke-linecap="round"/>
    <path d="M 140.0,-10.0 C 140.0,17.5 164.0,17.5 164.0,45.0 C 164.0,72.5 116.0,72.5 116.0,100.0 C 116.0,127.5 164.0,127.5 164.0,155.0 C 164.0,182.5 116.0,182.5 116.0,210.0 C 116.0,237.5 164.0,237.5 164.0,265.0" fill="none" stroke="#1f2937" stroke-width="9" stroke-linecap="round"/>
    <path d="M 180.0,-10.0 C 180.0,17.5 204.0,17.5 204.0,45.0 C 204.0,72.5 156.0,72.5 156.0,100.0 C 156.0,127.5 204.0,127.5 204.0,155.0 C 204.0,182.5 156.0,182.5 156.0,210.0 C 156.0,237.5 204.0,237.5 204.0,265.0" fill="none" stroke="#1f2937" stroke-width="9" stroke-linecap="round"/>
  </g>
</svg>
