<svg viewBox="0 0 200 200" xmlns="http://www.w3.org/2000/svg" role="img" aria-hidden="true">
  <rect width="200" height="200" rx="16" fill="#fdf8ee"/>
  <g>
    <path d="M 20.0,-10.0 L 28.0,-2.5 L 12.0,5.0 L 28.0,12.5 L 12.0,20.0 L 28.0,27.5 L 12.0,35.0 L 28.0,42.5 L 12.0,50.0 L 28.0,57.5 L 12.0,65.0 L 28.0,72.5 L 12.0,80.0 L 28.0,87.5 L 12.0,95.0 L 28.0,102.5 L 12.0,110.0 L 28.0,117.5 L 12.0,125.0 L 28.0,132.5 L 12.0,140.0 L 28.0,147.5 L 12.0,155.0 L 28.0,162.5 L 12.0,170.0 L 28.0,177.5 L 12.0,185.0 L 28.0,192.5 L 12.0,200.0 L 28.0,207.5 L 12.0,215.0 L 28.0,222.5 L 12.0,230.0" fill="none" stroke="#1f2937" stroke-width="9" stroke-linecap="round"/>
    <path d="M 60.0,-10.0 L 68.0,-2.5 L 52.0,5.0 L 68.0,12.5 L 52.0,20.0 L 68.0,27.5 L 52.0,35.0 L 68.0,42.5 L 52.0,50.0 L 68.0,57.5 L 52.0,65.0 L 68.0,72.5 L 52.0,80.0 L 68.0,87.5 L 52.0,95.0 L 68.0,102.5 L 52.0,110.0 L 68.0,117.5 L 52.0,125.0 L 68.0,132.5 L 52.0,140.0 L 68.0,147.5 L 52.0,155.0 L 68.0,162.5 L 52.0,170.0 L 68.0,177.5 L 52.0,185.0 L 68.0,192.5 L 52.0,200.0 L 68.0,207.5 L 52.0,215.0 L 68.0,222.5 L 52.0,230.0" fill="none" stroke="#1f2937" stroke-width="9" stroke-linecap="round"/>
    <path d="M 100.0,-10.0 L 108.0,-2.5 L 92.0,5.0 L 108.0,12.5 L 92.0,20.0 L 108.0,27.5 L 92.0,35.0 L 108.0,42.5 L 92.0,50.0 L 108.0,57.5 L 92.0,65.0 L 108.0,72.5 L 92.0,80.0 L 108.0,87.5 L 92.0,95.0 L 108.0,102.5 L 92.0,110.0 L 108.0,117.5 L 92.0,125.0 L 108.0,132.5 L 92.0,140.0 L 108.0,147.5 L 92.0,155.0 L 108.0,162.5 L 92.0,170.0 L 108.0,177.5 L 92.0,185.0 L 108.0,192.5 L 92.0,200.0 L 108.0,207.5 L 92.0,215.0 L 108.0,222.5 L 92.0,230.0" fill="none" stroke="#1f2937" stroke-width="9" stroke-linecap="round"/>
    <path d="M 140.0,-10.0 L 148.0,-2.5 L 132.0,5.0 L 148.0,12.5 L 132.0,20.0 L 148.0,27.5 L 132.0,35.0 L 148.0,42.5 L 132.0,50.0 L 148.0,57.5 L 132.0,65.0 L 148.0,72.5 L 132.0,80.0 L 148.0,87.5 L 132.0,95.0 L 148.0,102.5 L 132.0,110.0 L 148.0,117.5 L 132.0,125.0 L 148.0,132.5 L 132.0,140.0 L 148.0,147.5 L 132.0,155.0 L 148.0,162.5 L 132.0,170.0 L 148.0,177.5 L 132.0,185.0 L 148.0,192.5 L 132.0,200.0 L 148.0,207.5 L 132.0,215.0 L 148.0,222.5 L 132.0,230.0" fill="none" stroke="#1f2937" stroke-width="9" stroke-linecap="round"/>
    <path d="M 180.0,-10.0 L 188.0,-2.5 L 172.0,5.0 L 188.0,12.5 L 172.0,20.0 L 188.0,27.5 L 172.0,35.0 L 188.0,42.5 L 172.0,50.0 L 188.0,57.5 L 172.0,65.0 L 188.0,72.5 L 172.0,80.0 L 188.0,87.5 L 172.0,95.0 L 188.0,102.5 L 172.0,110.0 L 188.0,117.5 L 172.0,125.0 L 188.0,132.5 L 172.0,140.0 L 188.0,147.5 L 172.0,155.0 L 188.0,162.5 L 172.0,170.0 L 188.0,177.5 L 172.0,185.0 L 188.0,192.5 L 172.0,200.0 L 188.0,207.5 L 172.0,215.0 L 188.0,222.5 L 172.0,230.0" fill="none" stroke="#1f2937" stroke-width="9" stroke-linecap="round"/>
  </g>
</svg>
